<svg xmlns="http://www.w3.org/2000/svg" viewBox="0 0 200 120" fill="#EE1C25">
  <!-- ADP Logo: Stylized interlocking letters -->
  <!-- A -->
  <path d="M10 100L40 20L55 20L35 70H52L60 100H40L37 88H28L25 100Z"/>
  <!-- D -->
  <path d="M65 20H90C110 20 120 35 120 60C120 85 108 100 88 100H65ZM80 35V85H87C97 85 103 75 103 60C103 45 97 35 87 35Z"/>
  <!-- P -->
  <path d="M128 20H155C172 20 182 30 182 48C182 66 172 76 155 76H143V100H128ZM143 35V61H153C160 61 165 56 165 48C165 40 160 35 153 35Z"/>
</svg>
